<svg xmlns="http://www.w3.org/2000/svg" xmlns:xlink="http://www.w3.org/1999/xlink" width="500" zoomAndPan="magnify" viewBox="0 0 375 374.999991" height="500" preserveAspectRatio="xMidYMid meet" version="1.0"><defs><clipPath id="146d125e00"><path d="M 163 39 L 354 39 L 354 205 L 163 205 Z M 163 39 " clip-rule="nonzero"/></clipPath><clipPath id="030a2ed787"><path d="M 171.871094 15.800781 L 389.816406 51.25 L 355.113281 264.589844 L 137.167969 229.140625 Z M 171.871094 15.800781 " clip-rule="nonzero"/></clipPath><clipPath id="bcd7deecc0"><path d="M 159.828125 89.828125 L 149.304688 154.523438 C 146.113281 174.15625 150.851562 194.253906 162.472656 210.394531 C 174.097656 226.535156 191.660156 237.398438 211.292969 240.589844 L 280.484375 251.84375 C 300.117188 255.039062 320.214844 250.300781 336.355469 238.675781 C 352.496094 227.050781 363.359375 209.492188 366.550781 189.859375 L 377.074219 125.164062 C 380.269531 105.53125 375.53125 85.433594 363.90625 69.292969 C 352.28125 53.148438 334.722656 42.289062 315.089844 39.09375 L 245.898438 27.839844 C 226.265625 24.648438 206.167969 29.382812 190.023438 41.007812 C 173.882812 52.632812 163.023438 70.195312 159.828125 89.828125 Z M 159.828125 89.828125 " clip-rule="nonzero"/></clipPath><clipPath id="52f8a07dd2"><path d="M 171.871094 15.800781 L 389.816406 51.25 L 355.113281 264.589844 L 137.167969 229.140625 Z M 171.871094 15.800781 " clip-rule="nonzero"/></clipPath><clipPath id="b68bb4f765"><path d="M 171.871094 15.800781 L 399.023438 52.746094 L 364.324219 266.085938 L 137.167969 229.140625 Z M 171.871094 15.800781 " clip-rule="nonzero"/></clipPath><clipPath id="c43afc3491"><path d="M 182 78 L 372 78 L 372 243 L 182 243 Z M 182 78 " clip-rule="nonzero"/></clipPath><clipPath id="f6d2406460"><path d="M 171.871094 15.800781 L 389.816406 51.25 L 355.113281 264.589844 L 137.167969 229.140625 Z M 171.871094 15.800781 " clip-rule="nonzero"/></clipPath><clipPath id="c6a9c66d6e"><path d="M 159.828125 89.828125 L 149.304688 154.523438 C 146.113281 174.15625 150.851562 194.253906 162.472656 210.394531 C 174.097656 226.535156 191.660156 237.398438 211.292969 240.589844 L 280.484375 251.84375 C 300.117188 255.039062 320.214844 250.300781 336.355469 238.675781 C 352.496094 227.050781 363.359375 209.492188 366.550781 189.859375 L 377.074219 125.164062 C 380.269531 105.53125 375.53125 85.433594 363.90625 69.292969 C 352.28125 53.148438 334.722656 42.289062 315.089844 39.09375 L 245.898438 27.839844 C 226.265625 24.648438 206.167969 29.382812 190.023438 41.007812 C 173.882812 52.632812 163.023438 70.195312 159.828125 89.828125 Z M 159.828125 89.828125 " clip-rule="nonzero"/></clipPath><clipPath id="61c19edd78"><path d="M 171.871094 15.800781 L 389.816406 51.25 L 355.113281 264.589844 L 137.167969 229.140625 Z M 171.871094 15.800781 " clip-rule="nonzero"/></clipPath><clipPath id="4627198583"><path d="M 171.871094 15.800781 L 399.023438 52.746094 L 364.324219 266.085938 L 137.167969 229.140625 Z M 171.871094 15.800781 " clip-rule="nonzero"/></clipPath><clipPath id="86b6a4f73e"><path d="M 12 72 L 186 72 L 186 246 L 12 246 Z M 12 72 " clip-rule="nonzero"/></clipPath><clipPath id="fd9f1acdcf"><path d="M 27.695312 60.089844 L 198.058594 87.800781 L 170.347656 258.167969 L -0.015625 230.457031 Z M 27.695312 60.089844 " clip-rule="nonzero"/></clipPath><clipPath id="8baecfa2f0"><path d="M 27.695312 60.089844 L 198.058594 87.800781 L 170.347656 258.167969 L -0.015625 230.457031 Z M 27.695312 60.089844 " clip-rule="nonzero"/></clipPath><clipPath id="d5eafcd893"><rect x="0" width="375" y="0" height="288"/></clipPath></defs><g transform="matrix(1, 0, 0, 1, 0, 46)"><g clip-path="url(#d5eafcd893)"><g clip-path="url(#146d125e00)"><g clip-path="url(#030a2ed787)"><g clip-path="url(#bcd7deecc0)"><g clip-path="url(#52f8a07dd2)"><g clip-path="url(#b68bb4f765)"><path fill="#ffffff" d="M 190.332031 178.832031 C 227.539062 206.53125 268.019531 215.449219 310.113281 184.855469 C 337.835938 164.703125 322.558594 142.761719 290.628906 151.027344 C 262.714844 158.226562 183.222656 177.75 182.207031 128.152344 C 181.753906 104.671875 197.496094 81.386719 218.441406 71.117188 C 242.273438 59.449219 274.066406 59.523438 297.953125 66.28125 C 319.738281 72.480469 338.042969 84.648438 353.007812 102.335938 L 329.460938 69.644531 C 306.4375 37.722656 261.464844 30.40625 229.511719 53.390625 L 194.011719 78.953125 C 157.289062 105.433594 151.300781 149.761719 190.332031 178.832031 Z M 190.332031 178.832031 " fill-opacity="1" fill-rule="evenodd"/></g></g></g></g></g><g clip-path="url(#c43afc3491)"><g clip-path="url(#f6d2406460)"><g clip-path="url(#c6a9c66d6e)"><g clip-path="url(#61c19edd78)"><g clip-path="url(#4627198583)"><path fill="#ffffff" d="M 345.128906 103.316406 C 307.921875 75.621094 267.441406 66.703125 225.347656 97.296875 C 197.625 117.449219 212.9375 139.394531 244.824219 131.15625 C 272.746094 123.925781 352.238281 104.402344 353.253906 154 C 353.738281 177.519531 337.964844 200.765625 317.019531 211.035156 C 293.1875 222.703125 261.386719 222.664062 237.542969 215.875 C 215.722656 209.671875 197.449219 197.542969 182.453125 179.8125 L 206 212.503906 C 229.015625 244.464844 273.992188 251.78125 305.949219 228.761719 L 341.449219 203.195312 C 378.164062 176.753906 384.160156 132.390625 345.128906 103.316406 Z M 345.128906 103.316406 " fill-opacity="1" fill-rule="evenodd"/></g></g></g></g></g><g clip-path="url(#86b6a4f73e)"><g clip-path="url(#fd9f1acdcf)"><g clip-path="url(#8baecfa2f0)"><path fill="#ffffff" d="M 14.027344 174.046875 C 20.195312 209.175781 47.96875 238.136719 85.125 244.183594 C 129.894531 251.464844 172.234375 222.867188 182.742188 179.476562 C 171.625 219.65625 115.699219 240.949219 82.003906 216.398438 C 79.269531 214.425781 76.777344 212.71875 75.796875 209.332031 C 74.226562 204.042969 74.886719 194.753906 82.238281 186.445312 C 99.707031 166.707031 134.082031 163.074219 158.132812 165.851562 C 165.914062 166.722656 174.609375 168.25 184.480469 170.535156 C 190.625 124.394531 159.015625 81.453125 112.816406 73.9375 C 65.84375 66.296875 21.5 98.1875 13.847656 145.214844 C 12.308594 155.035156 12.429688 164.734375 14.027344 174.046875 M 45.054688 144.007812 C 52.925781 116.144531 80.671875 97.964844 109.945312 102.726562 C 129.628906 105.929688 145.371094 118.730469 153.160156 135.558594 C 127.882812 126.753906 81.179688 122.664062 45.054688 144.007812 Z M 45.054688 144.007812 " fill-opacity="1" fill-rule="evenodd"/></g></g></g></g></g></svg>