<svg xmlns="http://www.w3.org/2000/svg" xmlns:xlink="http://www.w3.org/1999/xlink" width="500" zoomAndPan="magnify" viewBox="0 0 375 374.999991" height="500" preserveAspectRatio="xMidYMid meet" version="1.0"><defs><clipPath id="5b82107a7f"><path d="M 163 39 L 354 39 L 354 205 L 163 205 Z M 163 39 " clip-rule="nonzero"/></clipPath><clipPath id="8325cf3115"><path d="M 171.871094 15.800781 L 389.816406 51.25 L 355.113281 264.589844 L 137.167969 229.140625 Z M 171.871094 15.800781 " clip-rule="nonzero"/></clipPath><clipPath id="3d6a650ecd"><path d="M 159.828125 89.828125 L 149.304688 154.523438 C 146.113281 174.15625 150.851562 194.253906 162.472656 210.394531 C 174.097656 226.535156 191.660156 237.398438 211.292969 240.589844 L 280.484375 251.84375 C 300.117188 255.039062 320.214844 250.300781 336.355469 238.675781 C 352.496094 227.050781 363.359375 209.492188 366.550781 189.859375 L 377.074219 125.164062 C 380.269531 105.53125 375.53125 85.433594 363.90625 69.292969 C 352.28125 53.148438 334.722656 42.289062 315.089844 39.09375 L 245.898438 27.839844 C 226.265625 24.648438 206.167969 29.382812 190.023438 41.007812 C 173.882812 52.632812 163.023438 70.195312 159.828125 89.828125 Z M 159.828125 89.828125 " clip-rule="nonzero"/></clipPath><clipPath id="98fddded6b"><path d="M 171.871094 15.800781 L 389.816406 51.25 L 355.113281 264.589844 L 137.167969 229.140625 Z M 171.871094 15.800781 " clip-rule="nonzero"/></clipPath><clipPath id="6c38b00a74"><path d="M 171.871094 15.800781 L 399.023438 52.746094 L 364.324219 266.085938 L 137.167969 229.140625 Z M 171.871094 15.800781 " clip-rule="nonzero"/></clipPath><clipPath id="599199c30b"><path d="M 182 78 L 372 78 L 372 243 L 182 243 Z M 182 78 " clip-rule="nonzero"/></clipPath><clipPath id="a496bfbfab"><path d="M 171.871094 15.800781 L 389.816406 51.25 L 355.113281 264.589844 L 137.167969 229.140625 Z M 171.871094 15.800781 " clip-rule="nonzero"/></clipPath><clipPath id="ed66f3ceb5"><path d="M 159.828125 89.828125 L 149.304688 154.523438 C 146.113281 174.15625 150.851562 194.253906 162.472656 210.394531 C 174.097656 226.535156 191.660156 237.398438 211.292969 240.589844 L 280.484375 251.84375 C 300.117188 255.039062 320.214844 250.300781 336.355469 238.675781 C 352.496094 227.050781 363.359375 209.492188 366.550781 189.859375 L 377.074219 125.164062 C 380.269531 105.53125 375.53125 85.433594 363.90625 69.292969 C 352.28125 53.148438 334.722656 42.289062 315.089844 39.09375 L 245.898438 27.839844 C 226.265625 24.648438 206.167969 29.382812 190.023438 41.007812 C 173.882812 52.632812 163.023438 70.195312 159.828125 89.828125 Z M 159.828125 89.828125 " clip-rule="nonzero"/></clipPath><clipPath id="70c0e5564a"><path d="M 171.871094 15.800781 L 389.816406 51.25 L 355.113281 264.589844 L 137.167969 229.140625 Z M 171.871094 15.800781 " clip-rule="nonzero"/></clipPath><clipPath id="a7d6ae737a"><path d="M 171.871094 15.800781 L 399.023438 52.746094 L 364.324219 266.085938 L 137.167969 229.140625 Z M 171.871094 15.800781 " clip-rule="nonzero"/></clipPath><clipPath id="1b180cde81"><path d="M 12 72 L 186 72 L 186 246 L 12 246 Z M 12 72 " clip-rule="nonzero"/></clipPath><clipPath id="886c446fb0"><path d="M 27.695312 60.089844 L 198.058594 87.800781 L 170.347656 258.167969 L -0.015625 230.457031 Z M 27.695312 60.089844 " clip-rule="nonzero"/></clipPath><clipPath id="31859c25f6"><path d="M 27.695312 60.089844 L 198.058594 87.800781 L 170.347656 258.167969 L -0.015625 230.457031 Z M 27.695312 60.089844 " clip-rule="nonzero"/></clipPath><clipPath id="a858057bf7"><path d="M 27.695312 60.089844 L 198.058594 87.800781 L 170.347656 258.167969 L -0.015625 230.457031 Z M 27.695312 60.089844 " clip-rule="nonzero"/></clipPath><clipPath id="543ee8f1f9"><rect x="0" width="375" y="0" height="288"/></clipPath></defs><g transform="matrix(1, 0, 0, 1, 0, 46)"><g clip-path="url(#543ee8f1f9)"><g clip-path="url(#5b82107a7f)"><g clip-path="url(#8325cf3115)"><g clip-path="url(#3d6a650ecd)"><g clip-path="url(#98fddded6b)"><g clip-path="url(#6c38b00a74)"><path fill="#000000" d="M 190.332031 178.832031 C 227.539062 206.53125 268.019531 215.449219 310.113281 184.855469 C 337.835938 164.703125 322.558594 142.761719 290.628906 151.027344 C 262.714844 158.226562 183.222656 177.75 182.207031 128.152344 C 181.753906 104.671875 197.496094 81.386719 218.441406 71.117188 C 242.273438 59.449219 274.066406 59.523438 297.953125 66.28125 C 319.738281 72.480469 338.042969 84.648438 353.007812 102.335938 L 329.460938 69.644531 C 306.4375 37.722656 261.464844 30.40625 229.511719 53.390625 L 194.011719 78.953125 C 157.289062 105.433594 151.300781 149.761719 190.332031 178.832031 Z M 190.332031 178.832031 " fill-opacity="1" fill-rule="evenodd"/></g></g></g></g></g><g clip-path="url(#599199c30b)"><g clip-path="url(#a496bfbfab)"><g clip-path="url(#ed66f3ceb5)"><g clip-path="url(#70c0e5564a)"><g clip-path="url(#a7d6ae737a)"><path fill="#000000" d="M 345.128906 103.316406 C 307.921875 75.621094 267.441406 66.703125 225.347656 97.296875 C 197.625 117.449219 212.9375 139.394531 244.824219 131.15625 C 272.746094 123.925781 352.238281 104.402344 353.253906 154 C 353.738281 177.519531 337.964844 200.765625 317.019531 211.035156 C 293.1875 222.703125 261.386719 222.664062 237.542969 215.875 C 215.722656 209.671875 197.449219 197.542969 182.453125 179.8125 L 206 212.503906 C 229.015625 244.464844 273.992188 251.78125 305.949219 228.761719 L 341.449219 203.195312 C 378.164062 176.753906 384.160156 132.390625 345.128906 103.316406 Z M 345.128906 103.316406 " fill-opacity="1" fill-rule="evenodd"/></g></g></g></g></g><g clip-path="url(#1b180cde81)"><g clip-path="url(#886c446fb0)"><g clip-path="url(#31859c25f6)"><g clip-path="url(#a858057bf7)"><path fill="#000000" d="M 14.015625 174.128906 C 20.191406 209.28125 47.980469 238.261719 85.167969 244.3125 C 129.964844 251.597656 172.335938 222.984375 182.851562 179.558594 C 171.722656 219.769531 115.761719 241.078125 82.042969 216.507812 C 79.308594 214.535156 76.808594 212.824219 75.832031 209.4375 C 74.257812 204.144531 74.921875 194.851562 82.277344 186.53125 C 99.757812 166.78125 134.160156 163.144531 158.226562 165.925781 C 166.011719 166.796875 174.710938 168.324219 184.589844 170.613281 C 190.742188 124.441406 159.109375 81.464844 112.878906 73.945312 C 65.871094 66.300781 21.492188 98.214844 13.839844 145.273438 C 12.296875 155.101562 12.417969 164.804688 14.015625 174.128906 M 45.070312 144.066406 C 52.945312 116.183594 80.707031 97.992188 110.003906 102.757812 C 129.699219 105.960938 145.453125 118.773438 153.246094 135.613281 C 127.953125 126.800781 81.21875 122.707031 45.070312 144.066406 Z M 45.070312 144.066406 " fill-opacity="1" fill-rule="evenodd"/></g></g></g></g></g></g></svg>