<svg xmlns="http://www.w3.org/2000/svg" xmlns:xlink="http://www.w3.org/1999/xlink" width="500" zoomAndPan="magnify" viewBox="0 0 375 374.999991" height="500" preserveAspectRatio="xMidYMid meet" version="1.0"><defs><clipPath id="e965f73420"><path d="M 140.113281 36 L 367.300781 36 L 367.300781 298 L 140.113281 298 Z M 140.113281 36 " clip-rule="nonzero"/></clipPath><clipPath id="315b6e668e"><path d="M 7.464844 0 L 139.707031 0 L 139.707031 374.6875 L 7.464844 374.6875 Z M 7.464844 0 " clip-rule="nonzero"/></clipPath><clipPath id="7fe4bb3140"><rect x="0" width="368" y="0" height="375"/></clipPath></defs><g transform="matrix(1, 0, 0, 1, 0, 0)"><g clip-path="url(#7fe4bb3140)"><path fill="#ffffff" d="M 217.757812 187.050781 L 283.472656 252.765625 L 212.210938 323.964844 C 234.515625 346.269531 270.683594 346.269531 292.988281 323.964844 L 353.914062 263.039062 L 247.875 156.933594 Z M 217.757812 187.050781 " fill-opacity="1" fill-rule="nonzero"/><g clip-path="url(#e965f73420)"><path fill="#ffffff" d="M 366.078125 115.789062 L 312.078125 61.792969 C 279 28.710938 225.445312 28.710938 192.363281 61.792969 L 131.058594 123.097656 C 97.980469 156.175781 97.980469 209.734375 131.058594 242.8125 L 185.054688 296.808594 C 186.503906 298.257812 188.773438 298.257812 190.222656 296.808594 L 224.371094 262.660156 C 225.820312 261.210938 225.820312 258.941406 224.371094 257.492188 L 161.363281 194.546875 C 155.757812 188.941406 155.757812 179.929688 161.363281 174.324219 L 241.824219 93.925781 C 247.433594 88.316406 256.441406 88.316406 262.050781 93.925781 L 324.996094 156.871094 C 326.445312 158.320312 328.710938 158.320312 330.160156 156.871094 L 366.140625 120.894531 C 367.523438 119.507812 367.523438 117.238281 366.078125 115.789062 Z M 366.078125 115.789062 " fill-opacity="1" fill-rule="nonzero"/></g><g clip-path="url(#315b6e668e)"><path fill="#ffffff" d="M 1.929688 374.933594 L -134.535156 341.632812 L -134.535156 33.285156 L 1.929688 0.00390625 Z M 160.601562 146.894531 L 150.472656 146.402344 C 148.171875 146.183594 146.011719 147.109375 144.382812 148.664062 C 142.742188 150.226562 141.824219 152.386719 141.824219 154.636719 L 141.824219 187.460938 C 141.824219 192.019531 145.511719 195.714844 150.066406 195.714844 L 160.597656 195.714844 L 160.597656 340.539062 L 18.414062 374.949219 L 18.414062 -0.0234375 L 160.597656 34.363281 L 160.597656 146.894531 Z M 108.769531 214.199219 L 86.371094 215.296875 C 81.976562 215.519531 78.527344 219.128906 78.527344 223.539062 L 78.527344 295.320312 C 78.527344 297.722656 79.578125 299.992188 81.378906 301.570312 C 82.894531 302.859375 85.566406 303.757812 87.964844 303.484375 L 110.363281 300.234375 C 111.402344 300 113.417969 299.679688 115.359375 297.417969 C 117.203125 295.269531 117.414062 293.199219 117.414062 292.070312 L 117.414062 222.445312 C 117.414062 220.191406 116.496094 218.03125 114.855469 216.453125 C 113.230469 214.910156 110.992188 214.070312 108.769531 214.199219 Z M 86.242188 159.824219 L 108.640625 160.902344 C 110.769531 160.761719 113.195312 160.097656 114.726562 158.632812 C 116.371094 157.078125 117.289062 154.921875 117.289062 152.667969 L 117.289062 83.007812 C 117.289062 82.476562 117.277344 80.121094 115.292969 77.640625 C 113.289062 75.132812 110.441406 74.886719 110.21875 74.851562 L 87.820312 71.609375 C 85.488281 71.222656 83.054688 71.980469 81.25 73.53125 C 79.449219 75.09375 78.402344 77.375 78.402344 79.765625 L 78.402344 151.589844 C 78.402344 155.984375 81.847656 159.613281 86.242188 159.824219 Z M 86.242188 159.824219 " fill-opacity="1" fill-rule="nonzero"/></g></g></g></svg>