<svg xmlns="http://www.w3.org/2000/svg" xmlns:xlink="http://www.w3.org/1999/xlink" width="500" zoomAndPan="magnify" viewBox="0 0 375 374.999991" height="500" preserveAspectRatio="xMidYMid meet" version="1.0"><defs><clipPath id="6caab4d9c7"><path d="M 140.113281 36 L 367.300781 36 L 367.300781 298 L 140.113281 298 Z M 140.113281 36 " clip-rule="nonzero"/></clipPath><clipPath id="5470f600c8"><path d="M 7.464844 0 L 139.707031 0 L 139.707031 374.6875 L 7.464844 374.6875 Z M 7.464844 0 " clip-rule="nonzero"/></clipPath><clipPath id="5edcc0b8bc"><rect x="0" width="368" y="0" height="375"/></clipPath></defs><g transform="matrix(1, 0, 0, 1, 0, 0)"><g clip-path="url(#5edcc0b8bc)"><path fill="#000000" d="M 217.769531 186.785156 L 283.492188 252.394531 L 212.222656 323.472656 C 234.53125 345.742188 270.699219 345.742188 293.007812 323.472656 L 353.941406 262.648438 L 247.890625 156.71875 Z M 217.769531 186.785156 " fill-opacity="1" fill-rule="nonzero"/><g clip-path="url(#6caab4d9c7)"><path fill="#000000" d="M 366.101562 115.644531 L 312.101562 61.738281 C 279.019531 28.710938 225.457031 28.710938 192.375 61.738281 L 131.0625 122.941406 C 97.980469 155.964844 97.980469 209.429688 131.0625 242.457031 L 185.0625 296.363281 C 186.511719 297.808594 188.78125 297.808594 190.230469 296.363281 L 224.382812 262.269531 C 225.835938 260.824219 225.835938 258.558594 224.382812 257.109375 L 161.371094 194.273438 C 155.761719 188.671875 155.761719 179.679688 161.371094 174.082031 L 241.839844 93.816406 C 247.449219 88.21875 256.457031 88.21875 262.066406 93.816406 L 325.019531 156.65625 C 326.46875 158.101562 328.734375 158.101562 330.183594 156.65625 L 366.164062 120.738281 C 367.550781 119.355469 367.550781 117.089844 366.101562 115.644531 Z M 366.101562 115.644531 " fill-opacity="1" fill-rule="nonzero"/></g><g clip-path="url(#5470f600c8)"><path fill="#000000" d="M 1.796875 374.640625 L -134.535156 341.367188 L -134.535156 33.257812 L 1.796875 0.00390625 Z M 160.3125 146.78125 L 150.191406 146.289062 C 147.890625 146.070312 145.738281 146.996094 144.109375 148.550781 C 142.46875 150.109375 141.550781 152.265625 141.550781 154.519531 L 141.550781 187.316406 C 141.550781 191.871094 145.234375 195.5625 149.789062 195.5625 L 160.304688 195.5625 L 160.304688 340.273438 L 18.265625 374.65625 L 18.265625 -0.0234375 L 160.304688 34.335938 L 160.304688 146.78125 Z M 108.527344 214.035156 L 86.152344 215.128906 C 81.761719 215.351562 78.320312 218.957031 78.320312 223.363281 L 78.320312 295.09375 C 78.320312 297.488281 79.363281 299.757812 81.167969 301.335938 C 82.679688 302.625 85.351562 303.523438 87.746094 303.25 L 110.121094 300 C 111.160156 299.769531 113.171875 299.445312 115.113281 297.1875 C 116.957031 295.042969 117.167969 292.96875 117.167969 291.84375 L 117.167969 222.269531 C 117.167969 220.019531 116.25 217.863281 114.609375 216.285156 C 112.984375 214.742188 110.75 213.90625 108.527344 214.035156 Z M 86.023438 159.699219 L 108.398438 160.777344 C 110.527344 160.636719 112.953125 159.972656 114.480469 158.507812 C 116.121094 156.957031 117.039062 154.800781 117.039062 152.546875 L 117.039062 82.945312 C 117.039062 82.414062 117.027344 80.058594 115.042969 77.578125 C 113.042969 75.074219 110.199219 74.828125 109.976562 74.792969 L 87.601562 71.554688 C 85.269531 71.167969 82.839844 71.921875 81.039062 73.476562 C 79.238281 75.035156 78.191406 77.3125 78.191406 79.703125 L 78.191406 151.46875 C 78.191406 155.863281 81.632812 159.488281 86.023438 159.699219 Z M 86.023438 159.699219 " fill-opacity="1" fill-rule="nonzero"/></g></g></g></svg>